<svg xmlns="http://www.w3.org/2000/svg" width="48" height="49" fill="none" viewBox="0 0 48 49"><mask id="mask0_1_312" style="mask-type:luminance" width="48" height="49" x="0" y="0" maskUnits="userSpaceOnUse"><path fill="#fff" d="M48 0.8125H0V48.8125H48V0.8125Z"/></mask><g mask="url(#mask0_1_312)"><path stroke="#fff" stroke-linecap="round" stroke-linejoin="round" stroke-width="2" d="M18 38.8124C9.4 41.6124 9.4 33.8124 6 32.8124M30 42.8124V35.8124C30 33.8124 30.2 33.0124 29 31.8124C34.6 31.2124 40 29.0124 40 19.8124C39.9976 17.4223 39.0651 15.127 37.4 13.4124C38.1809 11.3363 38.109 9.03566 37.2 7.0124C37.2 7.0124 35 6.4124 30.2 9.6124C26.1345 8.55358 21.8655 8.55358 17.8 9.6124C13 6.4124 10.8 7.0124 10.8 7.0124C9.89096 9.03566 9.81907 11.3363 10.6 13.4124C8.93491 15.127 8.00244 17.4223 8 19.8124C8 29.0124 13.4 31.2124 19 31.8124C17.8 33.0124 17.8 34.2124 18 35.8124V42.8124"/></g></svg>