<svg width="1228" height="982" viewBox="0 0 1228 982" fill="none" xmlns="http://www.w3.org/2000/svg">
<path d="M542.581 178.644C509.989 249.774 474.546 275.528 445.058 283.996C389.951 299.823 353.217 255.96 299.922 273.309C251.392 289.101 243.393 340.059 210.324 378.154C171.115 423.327 91.059 460.033 -90.6416 410.209M589.257 165.43C553.779 256.267 513.101 288.183 479.076 298.338C417.013 316.787 374.94 264.595 314.177 286.199C260.431 305.084 253.245 360.955 212.383 405.316C168.188 453.303 85.5977 490.034 -90.6502 443.821M635.939 152.216C597.584 262.769 551.672 300.837 513.11 312.687C444.091 333.758 396.74 273.43 328.456 299.089C269.539 321.235 263.195 381.921 214.458 432.486C165.384 483.401 80.1444 520.045 -90.6357 477.441M682.622 139.003C641.39 269.271 590.234 313.491 547.142 327.029C471.176 350.73 418.493 282.109 342.726 311.971C278.607 337.245 273.192 402.939 216.533 459.639C159.874 516.34 74.6981 550.039 -90.6212 511.035M729.305 125.789C685.188 275.773 628.797 326.155 581.168 341.37C498.247 367.693 440.238 290.77 356.997 324.861C287.676 353.247 283.227 424.018 218.607 486.801C159.969 543.773 69.2444 580.041 -90.6076 544.646M775.979 112.575C728.985 282.275 667.352 338.81 615.194 355.711C525.324 384.656 461.976 299.421 371.259 337.743C296.73 369.231 293.293 445.124 220.675 513.954C157.296 574.029 63.7906 610.034 -90.6084 578.25M822.662 99.3609C772.791 288.777 705.915 351.464 649.228 370.053C552.402 401.619 483.713 308.056 385.538 350.634C305.799 385.216 303.39 466.281 222.749 541.125C154.653 604.318 58.337 640.045 -90.5939 611.87M869.346 86.1469C816.589 295.279 744.485 364.118 683.254 384.402C579.472 418.599 505.443 316.69 399.8 363.524C314.844 401.191 313.502 487.466 224.817 568.287C152.019 634.627 52.8757 670.047 -90.5871 645.481M916.027 72.9333C860.394 301.772 783.048 376.773 717.287 398.744C606.558 435.563 527.179 325.308 414.079 376.415C323.905 417.158 323.637 508.676 226.899 595.448C149.407 664.961 47.4372 700.049 -90.5727 679.083M962.699 59.7194C904.188 308.274 821.603 389.427 751.313 413.085C633.628 452.526 548.808 333.645 428.342 389.297C332.873 432.897 333.765 529.904 228.959 622.61C146.78 695.295 41.9684 730.051 -90.5735 712.695M1009.38 46.5057C947.991 314.777 860.164 402.083 785.339 427.426C660.698 469.497 570.537 342.27 442.612 402.187C341.926 448.881 343.923 551.158 231.034 649.772C144.176 725.647 36.5223 760.054 -90.559 746.306M1056.07 33.2918C991.793 321.278 898.729 414.737 819.373 441.767C687.784 486.461 592.274 350.896 456.883 415.069C350.979 464.848 354.082 572.42 233.108 676.925C141.572 755.999 31.0684 790.047 -90.5531 779.909M1102.74 20.078C1035.6 327.78 937.293 427.392 853.402 456.117C714.854 503.432 614.004 359.539 471.153 427.968C360.032 480.841 364.248 593.709 235.183 704.096C138.976 786.376 25.6223 820.058 -90.5386 813.52M1149.42 6.8641C1079.39 334.283 975.858 440.046 887.427 470.459C741.932 520.395 635.734 368.165 485.416 440.85C369.078 496.808 374.422 614.999 237.242 731.257C136.372 816.754 20.1537 850.059 -90.5394 847.132M1196.11 -6.34974C1123.2 340.785 1014.41 452.7 921.461 484.8C769.01 537.367 657.472 376.799 499.695 453.74C378.147 512.792 384.611 636.305 239.325 758.419C133.784 847.132 14.715 880.061 -90.5173 880.742M1242.79 -19.5635C1167 347.278 1052.98 465.363 955.494 499.141C796.087 554.33 679.209 385.425 513.965 466.622C387.201 528.759 394.962 657.882 241.399 785.572C131.318 877.702 9.26113 910.058 -90.5105 914.35M1289.47 -32.7773C1210.79 353.78 1091.53 478.019 989.511 513.482C823.158 571.293 700.931 394.051 528.228 479.512C396.246 544.743 405.067 679.075 243.459 812.743C128.654 908.005 3.79232 940.063 -90.5113 947.967M1336.15 -45.9913C1254.6 360.282 1130.11 490.673 1023.54 527.832C850.235 588.265 722.66 402.694 542.499 492.403C405.3 560.727 415.171 700.267 245.534 839.905C126.012 938.3 -1.65366 970.068 -90.4977 981.566" stroke="url(#paint0_linear_1_5)" stroke-width="0.851691" stroke-miterlimit="10"/>
<defs>
<linearGradient id="paint0_linear_1_5" x1="705.983" y1="138.826" x2="134.971" y2="580.698" gradientUnits="userSpaceOnUse">
<stop stop-color="#242B36" stop-opacity="0"/>
<stop offset="0.5" stop-color="#242B36"/>
<stop offset="1" stop-color="#242B36" stop-opacity="0"/>
</linearGradient>
</defs>
</svg>
