<svg width="308" height="16" viewBox="0 0 308 16" fill="none" xmlns="http://www.w3.org/2000/svg">
<g clip-path="url(#clip0_1_358)">
<path d="M306.803 11.2129C306.972 11.1084 306.894 10.8472 306.45 10.8733L306.11 11.2782L306.803 11.2129Z" fill="#BC3E3E"/>
<path d="M303.877 10.1942C303.342 10.3639 302.715 10.6905 303.028 11.1084C303.577 10.7296 303.681 10.9125 304.334 10.4684C304.778 10.4684 305.092 10.6643 305 10.808C305.17 10.7166 305.679 10.9517 305.941 10.7035C305.635 10.5155 305.29 10.3981 304.934 10.3596C304.577 10.3212 304.215 10.3629 303.877 10.4815C303.668 10.377 303.838 10.2725 303.877 10.1942Z" fill="#BC3E3E"/>
<path d="M233.86 4.42142C234.069 4.42142 234.16 4.42142 234.173 4.42142C233.977 4.36918 233.821 4.38224 233.86 4.42142Z" fill="#BC3E3E"/>
<path d="M229.302 3.67697H229.576C229.487 3.6471 229.39 3.6471 229.302 3.67697Z" fill="#BC3E3E"/>
<path d="M260.673 6.39357L259.968 6.21072C259.902 6.34133 260.32 6.34133 260.673 6.39357Z" fill="#BC3E3E"/>
<path d="M297.843 10.7949C297.976 10.7799 298.108 10.7492 298.235 10.7035H297.869C297.869 10.7035 297.856 10.7688 297.843 10.7949Z" fill="#BC3E3E"/>
<path d="M272.519 6.86373H272.728C272.798 6.81879 272.865 6.76623 272.924 6.707L272.519 6.86373Z" fill="#BC3E3E"/>
<path d="M281.583 7.45145C281.387 7.45145 281.282 7.77796 281.191 7.93469C281.315 7.80558 281.482 7.72658 281.661 7.71266C281.666 7.61914 281.639 7.52683 281.583 7.45145Z" fill="#BC3E3E"/>
<path d="M266.028 6.32827C266.015 6.27429 265.987 6.22471 265.949 6.1846C265.951 6.21279 265.96 6.24021 265.973 6.26501C265.986 6.2898 266.006 6.31138 266.028 6.32827Z" fill="#BC3E3E"/>
<path d="M1.9574 14.1384H2.10106C2.10796 14.069 2.10796 13.999 2.10106 13.9295L1.9574 14.1384Z" fill="#BC3E3E"/>
<path d="M143.808 0.764465C144.683 1.09098 142.384 1.1824 143.703 1.5481C143.572 1.46973 144.892 0.973433 143.808 0.764465Z" fill="#BC3E3E"/>
<path d="M297.608 10.7296H297.242C297.364 10.7401 297.487 10.7401 297.608 10.7296Z" fill="#BC3E3E"/>
<path d="M201.587 2.0444C201.641 2.11377 201.707 2.17155 201.783 2.21419C201.783 2.21419 201.679 2.12277 201.587 2.0444Z" fill="#BC3E3E"/>
<path d="M194.09 2.22726C193.918 2.19803 193.74 2.19803 193.568 2.22726C193.593 2.23622 193.622 2.23622 193.646 2.22726C193.789 2.17185 193.948 2.17185 194.09 2.22726Z" fill="#BC3E3E"/>
<path d="M186.293 1.96603C186.336 1.99973 186.385 2.02619 186.437 2.0444H186.685L186.293 1.96603Z" fill="#BC3E3E"/>
<path d="M35.967 10.364C35.8131 10.3042 35.6747 10.2104 35.5621 10.0897C35.7188 10.3378 34.5956 10.6121 35.967 10.364Z" fill="#BC3E3E"/>
<path d="M297.856 10.6121C297.831 10.6557 297.795 10.6919 297.752 10.7171C297.707 10.7423 297.659 10.7556 297.608 10.7558H297.869C297.895 10.6121 297.908 10.6121 297.856 10.6121Z" fill="#BC3E3E"/>
<path d="M193.66 5.11364L192.353 5.00916C192.786 5.06982 193.222 5.10471 193.66 5.11364Z" fill="#BC3E3E"/>
<path d="M91.461 5.16586H91.1868C91.2769 5.188 91.3709 5.188 91.461 5.16586Z" fill="#BC3E3E"/>
<path d="M188.762 4.94383C188.549 4.81145 188.315 4.71853 188.07 4.66956C188.015 4.68733 187.965 4.71879 187.926 4.76098L188.762 4.94383Z" fill="#BC3E3E"/>
<path d="M27.6343 12.101C28.7967 11.9443 28.1045 11.5525 28.3135 11.239C29.6195 10.9125 29.0057 11.5002 29.5151 11.6831C30.1996 11.3574 30.9016 11.0696 31.6178 10.8211C31.6831 10.8994 31.8137 10.9125 31.6831 11.03C32.5451 10.5207 34.3997 10.6252 35.4053 9.9852C35.465 10.0072 35.5187 10.043 35.5621 10.0897C35.4771 10.0093 35.4099 9.91194 35.3649 9.80396C35.3199 9.69596 35.2981 9.57973 35.3009 9.46278C35.8233 9.37135 36.2412 9.01872 36.4763 9.30605C36.1498 9.30605 36.1498 9.46278 36.0061 9.58032L36.5416 9.37135C37.0902 9.75011 35.8102 9.63256 35.8494 9.97214C36.8412 9.57588 37.8755 9.29539 38.9317 9.13626C39.1537 9.54114 37.0379 9.5542 38.1872 9.78929H36.8812C37.9391 10.3378 36.1106 9.78929 37.0902 10.4684C38.775 10.364 38.9186 9.94602 40.6034 9.88071C40.943 9.60644 40.4336 9.54114 40.7732 9.25381C43.098 8.54854 42.7845 10.1419 44.4432 9.37135C44.8612 9.01872 44.9787 8.44406 46.2456 8.60078L45.8799 9.14932C47.5124 9.00566 46.7288 8.32651 48.492 8.47018C48.2177 8.69221 47.2512 8.77057 47.4994 8.80975C48.6356 9.07096 48.2438 8.44406 49.0797 8.33957L49.3148 8.75751C51.0257 8.4963 52.8934 7.96082 54.7871 7.67349C54.6957 7.81715 54.3823 7.98694 54.7871 8.07836C56.0287 7.83783 57.2856 7.68507 58.5486 7.62124C59.8546 7.62124 61.1607 7.62124 62.2839 7.62124L63.2373 7.20331C63.4462 7.20331 63.6291 7.33391 63.4201 7.42534C64.3344 7.49064 63.4201 7.19025 63.8642 6.99434C64.3082 6.79843 64.5695 7.15107 64.2429 7.29473C66.2558 6.66015 68.3641 6.3817 70.4728 6.47192L70.1463 6.61559C71.4523 6.61559 71.5699 5.70135 72.7584 5.96256L72.5364 6.04092C75.3966 5.96256 78.5181 5.33566 80.7514 5.80583C81.1171 5.23117 83.5855 5.8842 83.7161 5.10057C84.8601 5.42951 86.0399 5.6181 87.2294 5.66217C87.8433 5.66217 88.1175 5.12669 88.8751 5.00914V5.40096L89.8807 4.91772L90.4554 5.36178L91.1606 5.21811C90.8733 5.21811 90.5468 5.07445 90.586 4.9569C91.5152 4.75392 92.4856 4.8689 93.3418 5.28341L95.9538 4.77405C95.9538 4.94384 95.4706 5.0222 95.131 5.15281C96.4371 4.65651 95.4053 5.55768 96.6722 5.15281C96.4893 5.07445 96.7505 4.90466 96.7767 4.8263C97.8306 5.01287 98.9093 5.01287 99.9634 4.8263L99.8067 5.08751C101.766 5.08751 103.921 4.78712 106.102 4.70875C105.318 4.61733 105.475 4.12103 106.102 4.05573L106.337 4.47366C106.742 4.18633 105.658 4.33 106.507 3.97736C107.33 3.97736 107.068 4.44754 106.611 4.60427L107.643 4.40836C107.708 4.53897 107.486 4.61733 107.421 4.77405C107.826 4.49978 109.158 5.13975 109.733 4.65651V4.78712C111.927 4.69569 112.919 4.51284 114.696 4.42142C114.696 4.05573 115.427 4.10797 116.002 3.80758C117.445 3.98512 118.897 4.07672 120.351 4.08185C121.448 3.88594 120.664 3.7684 121.161 3.54637C121.252 3.87288 122.819 3.82064 122.01 4.06879C123.622 4.01843 125.231 3.8789 126.829 3.65085C126.568 3.50719 126.267 3.45494 126.424 3.3374C126.855 3.3374 127.417 3.468 127.351 3.62473H127.234C129.924 3.07619 133.464 4.47366 135.606 3.7684H135.488L137.708 3.4027C138.727 3.4027 137.094 3.65085 137.852 3.85982C140.255 3.29822 141.639 3.93818 143.625 3.57249C145.153 4.55203 149.045 3.50719 151.108 4.13409L150.991 3.899C151.526 3.67697 151.644 4.02961 152.036 4.09491C152.036 3.91206 151.448 3.88594 151.788 3.75534C156.306 3.48106 161.113 4.22551 165.736 4.49978C167.434 4.59121 166.729 3.32434 168.858 3.91206L168.244 4.33C171.666 3.84676 175.231 4.48672 178.588 4.16021C178.392 4.25163 178.379 4.38224 178.052 4.36918C178.744 4.70875 180.664 4.47366 180.664 4.21245C181.187 4.21245 180.769 4.44754 181.095 4.59121C181.801 4.80018 182.885 4.25163 183.25 4.59121C183.316 4.59121 183.054 4.69569 182.924 4.70875C183.381 4.57815 185.066 4.81324 184.635 4.44754C185.941 4.65651 187.051 4.35612 188.043 4.60427C188.71 4.21245 190.185 4.86548 190.42 4.30388C190.303 4.87854 192.602 4.83936 193.411 4.60427C193.137 4.77406 194.09 4.8263 193.764 5.04833C194.678 5.04833 195.514 5.04833 195.37 4.69569C197.003 5.47932 198.74 4.27776 199.654 5.23117C202.358 5.0222 204.878 4.91772 207.282 4.87854C207.177 5.46626 204.604 4.87854 204.669 5.4532C206.63 5.14823 208.616 5.03015 210.599 5.10057C211.187 5.20505 210.246 5.33566 210.05 5.42708C212.362 5.29648 214.478 5.71441 216.581 5.50544C216.581 5.50544 216.346 5.60993 216.137 5.63605C216.541 5.63605 217.077 5.77971 217.038 5.50544H216.646C216.019 5.08751 218.279 4.77406 218.37 4.57815C217.639 5.30954 220.368 4.87854 219.232 5.79277C219.506 5.79277 219.846 5.64911 219.794 5.46626C220.185 5.46626 220.303 5.64911 219.898 5.83196C221.348 5.75359 220.851 5.4532 222.157 5.5185C222.157 5.64911 221.87 5.68829 221.727 5.83196C222.509 5.53431 223.355 5.44431 224.182 5.57075C224.182 5.64911 224.182 5.75359 223.908 5.72747C225.801 5.79277 227.173 5.23117 229.236 5.58381C228.596 6.11929 229.942 5.80583 230.02 6.30213L231.143 6.22377L230.712 5.96256C231.612 5.8913 232.516 5.8913 233.416 5.96256L232.671 6.11929H234.513L233.481 5.87114C234.487 5.67523 233.481 5.24423 234.709 5.46626C234.447 5.46626 235.688 5.46626 236.184 5.84502C236.738 5.67051 237.326 5.63905 237.895 5.75359C238.078 5.92338 237.713 6.28907 237.895 6.39356C238.405 6.0148 240.194 6.39356 240.834 6.02786C240.758 6.05983 240.697 6.11933 240.663 6.19441C240.629 6.2695 240.625 6.35464 240.651 6.43274L241.082 6.11929C241.526 6.26295 241.592 6.31519 241.5 6.5111C242.806 6.65477 241.108 5.87114 242.715 6.23683C242.584 6.23683 242.636 6.23683 242.375 6.34132C243.995 6.5764 245.536 6.34132 247.012 6.5764C247.43 7.09882 245.706 6.5764 246.176 7.05964C248.352 6.95073 250.53 6.95073 252.706 7.05964L252.314 6.98128C252.654 6.30213 253.855 7.42534 254.926 7.16413C254.665 7.16413 254.561 7.52982 254.639 7.46452C256.338 7.59946 258.046 7.59946 259.746 7.46452L259.471 7.63431C260.294 7.84327 261.679 7.86939 262.58 8.01306C262.867 7.85633 263.376 7.92164 263.089 7.63431C265.819 8.84893 268.47 7.45146 270.925 8.48324C270.625 8.48324 270.207 8.58772 270.442 8.60078H272.571C272.427 8.28733 272.297 8.39181 271.879 8.1306C272.318 7.97279 272.789 7.92788 273.25 8C272.284 8.1306 273.25 8.48324 273.616 8.67915C273.616 8.58772 273.707 8.4963 273.616 8.39182C274.687 9.01872 273.838 7.80409 275.327 8.27427L275.235 8.431C275.8 8.32815 276.373 8.28437 276.946 8.30039C277.181 8.66609 276.332 8.41794 276.28 8.70527C277.129 8.70527 278.017 8.16979 278.762 8.57466C278.396 8.63996 277.874 8.57466 277.456 8.67915C277.919 8.97895 278.457 9.14606 279.01 9.16238L280.447 9.44972L280.081 9.31911C281.217 8.48324 282.275 9.31911 283.764 8.80975C282.314 9.27993 283.503 9.1232 283.372 9.51502C283.738 9.64562 284.286 9.81541 284.117 9.90683C284.822 9.64562 285.24 10.2464 286.232 9.84153C286.232 9.97214 286.964 9.90683 286.781 10.2203C287.682 10.2203 286.585 9.9852 286.676 9.82847C288.074 9.4889 289.85 10.599 291.901 10.1419C293.612 10.0244 293.964 9.6195 295.544 9.52808C296.067 9.76317 295.087 9.95907 295.087 9.95907C295.832 10.1831 296.617 10.2411 297.386 10.1289C297.216 10.2333 297.386 10.3378 297.621 10.4946C298.261 10.4946 298.078 10.0766 298.927 10.3248C298.727 10.52 298.492 10.6752 298.235 10.7819C299.005 10.7819 299.776 10.5468 300.586 10.4815C300.769 10.7296 300.076 10.7819 299.789 10.9125C300.69 10.9125 302.101 10.9125 302.401 10.5468L301.853 10.3901C302.166 10.3901 301.996 10.7035 301.748 10.7427C300.965 10.9647 300.664 10.5468 300.625 10.4162H301.2C300.677 9.63256 298.927 10.4162 297.791 10.2464L298.3 9.73705L297.112 10.1027C296.877 9.94602 296.733 9.63256 297.295 9.59338C296.498 9.25381 296.563 9.72399 295.884 9.37135C295.806 9.37135 295.884 9.37135 295.884 9.27993L295.074 9.38441C295.244 9.27993 294.97 8.9926 295.453 9.11014C294.056 8.69221 293.128 9.34523 292.619 8.88811H292.736C290.751 8.88811 292.514 9.26687 290.999 9.6195L290.072 8.5616L289.85 8.95342C289.654 8.95342 289.249 8.86199 289.341 8.70527C288.557 8.9273 289.458 8.88811 288.988 9.11014C288.035 8.67915 286.272 9.11014 286.102 8.431C285.723 8.70527 287.016 8.73139 285.958 8.87505C285.71 8.16979 284.73 8.87505 283.868 8.52242C284.169 8.19591 285.005 8.44406 284.13 8.0653C283.542 8.61384 282.393 7.80409 281.622 7.85633C281.557 8.32651 279.963 7.9347 278.683 8C277.518 7.70341 276.336 7.47663 275.144 7.32085V7.24249C274.883 7.69961 273.668 7.51676 272.78 7.55594C272.78 7.26861 273.002 7.17719 273.485 7.08576L272.649 7.02046C272.337 7.18899 271.985 7.26597 271.631 7.24249L271.944 6.69395C270.73 6.83384 269.502 6.83384 268.287 6.69395C268.183 7.02046 269.358 7.69961 267.83 7.81715C267.83 7.63431 267.752 7.32085 268.157 7.28167C267.916 7.33698 267.666 7.33698 267.425 7.28167L268.052 7.02046C267.412 6.83761 267.686 7.24249 267.177 7.17719C267.177 6.92904 266.798 6.96822 266.89 6.77231C266.981 6.5764 267.334 6.91598 267.543 6.77231C267.011 6.71886 266.499 6.54943 266.041 6.27601C266.041 6.41968 266.041 6.61559 265.584 6.62865C264.474 6.62865 265.231 6.28907 264.591 6.10623C264.304 6.27601 263.612 6.10623 263.559 6.41968C263.246 6.41968 263.194 6.21071 263.076 6.10623C262.488 6.23683 260.386 5.96256 261.012 6.41968H261.156H261.052C259.145 6.66783 257.134 5.93644 255.279 5.97562V5.84502C254.175 5.80364 253.07 5.84731 251.975 5.97562C251.648 5.97562 251.217 5.68829 251.361 5.54462C250.635 5.66835 249.889 5.62819 249.18 5.42708C250.055 5.25729 248.892 5.21811 250.068 5.3226C249.227 5.03435 248.32 4.99356 247.456 5.20505C247.874 4.8916 246.646 4.73487 246.15 4.80018L246.907 5.08751C246.361 5.0832 245.815 5.04394 245.275 4.96996L245.588 4.55203C243.355 3.88594 241.435 5.20505 239.763 4.21245C239.149 4.47366 240.991 4.49978 240.429 4.8263C239.615 4.63776 238.816 4.38893 238.039 4.08185C236.615 3.75534 236.668 4.63039 235.179 4.36918C235.362 4.53897 235.518 4.96996 234.395 5.03526C233.272 5.10057 233.089 4.31694 233.807 4.22551C234.069 4.22551 234.186 4.22551 234.173 4.34306C234.513 4.34306 234.957 4.2647 234.552 4.06879L234.408 4.21245C233.899 4.02961 232.462 3.95124 232.815 3.72921C232.018 3.82064 232.462 3.95124 233.037 4.06879C231.731 3.7684 230.947 3.92512 229.576 3.70309C229.785 3.80758 229.981 4.00348 229.759 3.97736C227.747 3.69003 228.858 4.22551 227.486 4.22551C226.716 3.95124 227.787 3.67697 226.402 3.79452C225.566 3.59861 226.245 3.37658 226.585 3.2721C225.549 3.33423 224.511 3.19223 223.529 2.85416L224.208 2.76274C223.857 2.80155 223.501 2.80155 223.15 2.76274L223.503 3.10231C223.124 3.02395 222.797 2.99783 222.811 2.88028C222.393 3.06313 223.085 3.4027 222.275 3.63779C221.766 3.45494 220.682 3.72921 220.525 3.31128C222.157 3.53331 220.368 2.88028 221.753 2.89334C221.427 2.94143 221.098 2.94143 220.773 2.89334C220.773 2.89334 220.773 2.81498 220.943 2.80192C219.402 2.3448 220.198 3.21985 218.579 3.12843C218.801 2.9064 218.226 2.67131 217.965 2.69743C218.618 2.69743 218.252 3.10231 217.652 3.24598C216.62 3.01089 216.515 3.32434 215.967 3.24598L216.594 3.36352C216.372 3.58555 215.849 3.53331 215.118 3.55943C215.118 3.37658 215.784 3.468 215.536 3.37658C214.713 3.74227 213.733 2.86722 212.61 3.07619C212.101 2.89334 212.61 2.63213 212.127 2.50153C210.821 2.73662 210.821 2.12277 209.45 2.31868C209.815 2.64519 209.894 2.56683 208.94 2.82804L211.121 2.71049L209.711 3.10231C210.364 3.10231 211.095 2.95864 211.487 3.03701C210.821 3.25904 210.886 3.18067 211.187 3.45494C210.312 2.94558 209.397 3.65085 208.379 3.28516L208.444 2.51459C206.903 2.10971 205.662 2.80192 203.651 2.51459L204.291 2.67131C204.016 2.9717 203.05 2.67131 202.384 2.76274C202.462 2.50153 202.057 2.39704 201.783 2.22726C201.783 2.4101 200.307 2.13583 200.098 2.64519L199.21 2.26644C197.578 2.05747 197.316 2.91946 195.749 2.76274C196.232 2.50153 195.527 2.29256 196.585 2.13583C196.063 2.13583 195.592 2.04441 195.579 2.22726C195.279 2.04441 194.117 2.51459 193.646 2.22726C193.411 2.33174 193.333 2.60601 192.745 2.55377V2.42316C192.745 2.42316 191.818 2.55377 192.314 2.86722C190.734 2.00523 187.808 2.78886 186.424 2.04441C185.275 2.04441 183.903 2.13583 182.858 2.12277C182.924 2.04441 182.858 1.99217 183.067 2.03135C181.631 1.74402 182.153 2.73662 180.534 2.42316C179.724 1.97911 181.409 2.22726 180.899 2.05747C180.69 1.19548 178.927 2.05747 177.843 1.57423H178.104C177.282 1.26078 176.054 1.83544 174.683 1.73096C174.683 1.73096 174.761 1.65259 174.683 1.60035C173.367 1.96859 172.012 2.17043 170.647 2.20114C171.065 1.87462 171.248 2.04441 170.999 1.69178C170.412 1.69178 171.156 2.24032 169.981 2.31868C169.602 2.12277 168.753 1.95299 168.675 1.60035H169.785C169.223 1.13017 168.348 1.60035 167.76 1.50893L167.839 1.29996C166.141 1.29996 166.102 1.8485 164.273 1.7832L164.456 1.93993C163.451 2.43622 163.62 1.63953 162.615 2.00523L162.327 1.48281C161.166 1.71993 159.993 1.89865 158.814 2.01829C159.762 1.65895 160.742 1.38789 161.74 1.20854C160.861 1.14157 159.978 1.2255 159.128 1.45669C159.407 1.37324 159.7 1.3466 159.99 1.37832C158.989 1.80535 157.902 1.99317 156.816 1.92686C157.064 0.934266 153.42 1.60035 152.48 0.842843C150.168 1.20854 147.895 0.686117 145.205 0.738358C146.158 1.52199 144.421 0.738359 144.578 1.56117C143.951 1.56117 143.716 1.56117 143.664 1.56117L141.796 1.06487C141.352 0.842843 142.397 0.895085 142.345 0.712237C140.96 0.712237 141.757 0.372664 140.856 0.163696C141.039 0.451027 140.373 0.568572 139.55 0.464088L140.66 0.829782C138.779 1.26078 138.988 0.163696 137.107 0.581632L137.682 0.333483C136.703 0.477148 134.025 0.333483 133.059 0.999569C132.889 0.908145 132.654 0.686117 133.059 0.620814C130.682 0.620814 127.835 1.40444 125.941 1.03875L126.124 0.842843C125.68 0.842843 125.353 1.2216 124.818 1.03875C124.818 0.960387 125 0.842843 124.818 0.829782C124.253 1.03442 123.654 1.12326 123.054 1.09099L123.564 0.855903C121.239 0.646935 120.024 1.46975 118.091 1.62647C118.091 1.05181 116.263 0.895085 115.349 0.829782V0.751419C112.983 0.918087 110.632 1.24095 108.309 1.7179C106.742 1.15629 103.085 1.7179 100.551 1.40444C100.943 1.49587 100.551 1.86156 100.068 1.92686C99.5847 1.99217 98.5006 2.39704 98.566 1.86156H98.7749C98.3047 1.36526 97.1162 1.53505 96.1628 1.57423L96.0453 2.2795C93.5377 1.4175 89.6456 3.03701 88.209 2.2142C87.6343 2.42316 86.9029 2.47541 86.3283 2.68437V2.30562C84.8319 2.29107 83.3361 2.36521 81.8485 2.52765L82.2403 2.24032C81.104 2.24032 80.9343 3.38964 79.8241 3.54637L79.4715 3.01089C77.469 2.89013 75.4597 3.05281 73.5028 3.49413C73.5028 3.41576 73.5812 3.24598 73.8947 3.19373C72.9674 3.19373 70.2508 3.19373 70.6556 3.85982C70.6556 3.37658 68.5921 3.99042 67.5472 4.30388L67.6779 3.92512C67.0664 4.41848 66.3288 4.73067 65.549 4.8263C65.2355 4.8263 65.2617 4.56509 65.6665 4.61733C64.6478 4.51284 64.909 5.03526 63.6813 4.94384L64.1123 4.66957C63.5752 4.6414 63.0475 4.81885 62.6365 5.16587C62.0096 5.37484 60.6774 5.24423 60.4946 4.93078C60.3429 5.08693 60.1594 5.20859 59.9566 5.28746C59.7538 5.36635 59.5363 5.40061 59.3191 5.3879C59.2277 5.27035 59.4367 5.17893 59.5542 5.12669C57.8041 5.0222 57.0466 5.8189 55.832 5.58381C55.8177 5.52852 55.7857 5.47943 55.7409 5.44405C55.696 5.40866 55.6409 5.38894 55.5838 5.3879C56.8899 5.23117 58.0392 5.12669 57.9347 5.16587C57.9347 4.83936 56.7985 4.90466 57.6343 4.34306C56.573 4.90057 55.4169 5.25493 54.2255 5.3879C54.1738 5.34816 54.1295 5.29951 54.0949 5.24423H54.2125C53.9788 5.23181 53.7457 5.27665 53.5333 5.37484C53.2338 5.34215 52.9316 5.34215 52.6322 5.37484C52.4754 5.11363 51.3261 5.37484 50.8037 5.37484C50.8951 5.72747 50.1768 5.75359 50.882 5.97562C50.7906 5.97562 50.9735 5.97562 51.3392 5.87114H51.5742L52.8803 5.68829C52.6672 5.83549 52.4271 5.93899 52.1737 5.99278C51.9205 6.04659 51.659 6.04963 51.4045 6.00174C51.1807 6.2355 50.9454 6.45782 50.6992 6.66783C49.9025 6.24989 48.4267 6.13235 48.1785 5.84502C46.5329 6.23683 44.2604 6.41968 43.2808 7.22943C42.8237 7.3731 42.7192 7.09882 42.5233 7.0074C42.7726 6.92718 43.0132 6.82218 43.2416 6.69395C42.3144 6.98128 40.4336 7.08576 40.2639 7.59512C39.0362 7.51676 40.8777 7.05964 39.2451 7.34697L39.441 7.16413C36.1106 6.86374 34.3605 9.13626 30.6513 8.66609C30.8995 8.66609 31.0301 8.66609 31.0954 8.77057C26.9552 8.95342 22.7367 10.3117 18.6226 10.3248C17.9266 10.3467 17.2588 10.6046 16.7288 11.0562L16.4154 10.7166L15.3052 11.3696C13.6727 11.9965 12.2229 10.9256 10.1855 11.9182L10.512 12.1271C9.74144 12.2185 8.10888 12.7018 8.18724 12.3883C8.13332 12.4743 8.05431 12.5417 7.96091 12.5814C7.8675 12.6211 7.76415 12.6312 7.66482 12.6104V12.4145L5.77105 13.1328C4.28215 13.2373 5.84941 12.2838 3.70749 12.6104C2.93692 12.8324 1.56556 13.603 1.89208 13.6813C2.21859 13.7597 2.72795 13.6813 2.79326 13.8642L2.08799 14.0993C2.08799 14.7131 1.63087 15.4053 3.48546 15.5359L4.64785 14.9482L5.10496 15.1702L4.06012 15.3792C4.29227 15.4211 4.53101 15.4088 4.75759 15.3431C4.98419 15.2774 5.19248 15.1602 5.36617 15.0004C5.52502 15.1425 5.72795 15.2255 5.94084 15.2355L7.05098 14.4519C7.24689 14.6609 6.59386 15.0004 7.42973 15.0004C7.95215 14.6347 6.78977 14.5694 7.70401 14.2299C8.34397 14.3996 8.2003 14.6478 8.85333 14.2952C8.98393 14.4258 8.85333 14.5564 8.59212 14.6739C9.17984 14.3735 10.2116 14.3082 10.4728 13.9295C11.1389 14.1646 12.5364 13.4854 12.5756 14.0601C13.048 13.715 13.579 13.4584 14.1428 13.3026C13.2286 14.1646 16.2717 12.9761 16.128 13.7597C16.7941 13.0152 18.8446 13.0022 20.1507 12.4536C20.0676 12.55 19.9507 12.6108 19.8242 12.6234C20.365 12.5725 20.9103 12.5989 21.4437 12.7018C21.4437 12.1924 22.6452 11.9051 23.246 11.5002C24.2517 11.8528 22.7628 12.1794 23.1285 12.5973C23.024 12.1924 24.6957 11.9573 24.33 11.67C25.0875 11.8659 24.97 11.67 25.401 12.0879C25.401 11.4349 26.054 11.892 26.6026 11.4088C27.6866 11.5786 26.9552 11.9704 28.0653 11.6178C28.6139 11.7353 27.6343 12.101 27.6343 12.101ZM57.0466 7.29473C56.7723 7.29473 56.4197 7.29473 56.054 7.39922C55.9626 7.28167 56.054 7.13801 56.263 7.11189C56.1454 7.21637 56.707 7.22943 57.0466 7.29473ZM51.9138 5.30954C52.2795 5.21811 52.4101 5.30954 52.4624 5.30954L51.8355 5.42708C51.8557 5.38427 51.8821 5.34467 51.9138 5.30954Z" fill="#BC3E3E"/>
<path d="M51.313 5.87114H51.1694H51.3914L51.5089 5.74054L51.313 5.87114Z" fill="#BC3E3E"/>
<path d="M88.9142 5.49239L88.9012 5.40097L88.7053 5.49239H88.9142Z" fill="#BC3E3E"/>
<path d="M273.616 8.61383C273.658 8.66781 273.718 8.70486 273.786 8.71832C273.786 8.71832 273.707 8.66607 273.616 8.61383Z" fill="#BC3E3E"/>
<path d="M283.32 9.58031C283.362 9.54028 283.393 9.49106 283.411 9.43665L283.32 9.58031Z" fill="#BC3E3E"/>
<path d="M216.137 5.70135H216.045C215.588 5.76666 215.849 5.7536 216.137 5.70135Z" fill="#BC3E3E"/>
<path d="M236.185 5.96255L235.531 6.10622C235.884 6.1454 236.158 6.17152 236.185 5.96255Z" fill="#BC3E3E"/>
<path d="M193.79 5.12668V5.11362H193.659L193.79 5.12668Z" fill="#BC3E3E"/>
<path d="M234.591 6.04093C234.902 6.09782 235.221 6.09782 235.531 6.04093C235.219 5.99555 234.903 5.99555 234.591 6.04093Z" fill="#BC3E3E"/>
<path d="M301.84 11.0823H302.062C301.957 11.0431 301.866 11.0431 301.84 11.0823Z" fill="#BC3E3E"/>
<path d="M302.545 10.9908L302.062 11.0561C302.245 11.0692 302.427 11.0953 302.545 10.9908Z" fill="#BC3E3E"/>
<path d="M296.028 10.5207L295.949 10.6513C295.972 10.6364 295.99 10.6171 296.003 10.5945C296.016 10.572 296.025 10.5468 296.028 10.5207Z" fill="#BC3E3E"/>
<path d="M294.33 10.4293C294.835 10.6064 295.363 10.7119 295.897 10.7427V10.6513C295.714 10.8211 294.722 10.2333 294.33 10.4293Z" fill="#BC3E3E"/>
<path d="M287.356 8.26122L288.779 8.47019C288.531 8.31346 288.218 8.09144 288.871 8.11756C287.107 7.55596 289.184 8.45713 287.356 8.26122Z" fill="#BC3E3E"/>
<path d="M282.954 7.73878C283.725 7.73878 282.954 7.52981 282.954 7.45145C282.51 7.54287 282.393 7.56899 282.954 7.73878Z" fill="#BC3E3E"/>
<path d="M251.047 5.50544L251.152 5.17892C250.551 5.17892 251.139 5.29647 251.047 5.50544Z" fill="#BC3E3E"/>
<path d="M244.831 6.83761L245.392 7.08576L245.693 6.79843L244.831 6.83761Z" fill="#BC3E3E"/>
<path d="M241.383 4.23858L241.644 4.21246L240.651 4.26471L241.383 4.23858Z" fill="#BC3E3E"/>
<path d="M187.691 1.69179L187.861 2.10972C188.266 2.04442 188.357 1.5873 187.691 1.69179Z" fill="#BC3E3E"/>
<path d="M164.482 1.46974C164.293 1.34249 164.075 1.26196 163.848 1.23472C163.622 1.20748 163.39 1.23431 163.176 1.31302C163.607 1.39551 164.043 1.44788 164.482 1.46974Z" fill="#BC3E3E"/>
<path d="M94.8698 1.82238L95.327 1.66565L94.4519 1.83544L94.8698 1.82238Z" fill="#BC3E3E"/>
</g>
<defs>
<clipPath id="clip0_1_358">
<rect width="306.922" height="15.6726" fill="white" transform="translate(0.546875 0.163696)"/>
</clipPath>
</defs>
</svg>
