<svg width="35" height="36" viewBox="0 0 35 36" fill="none" xmlns="http://www.w3.org/2000/svg">
<path d="M33.125 1.8125L29.125 30.8125L17.125 34.8125L5.125 30.8125L1.125 1.8125H33.125Z" stroke="white" stroke-width="2" stroke-linecap="round" stroke-linejoin="round"/>
<path d="M8.125 9.8125H14.125V25.8125L10.125 23.8125" stroke="white" stroke-width="2" stroke-linecap="round" stroke-linejoin="round"/>
<path d="M26.125 9.8125H21.125C20.8598 9.8125 20.6054 9.9179 20.4179 10.1054C20.2304 10.2929 20.125 10.5473 20.125 10.8125V16.8125C20.125 17.0777 20.2304 17.3321 20.4179 17.5196C20.6054 17.7071 20.8598 17.8125 21.125 17.8125H23.971C24.1141 17.8125 24.2556 17.8433 24.3858 17.9027C24.5161 17.9621 24.632 18.0487 24.7259 18.1568C24.8197 18.2649 24.8893 18.3919 24.9299 18.5291C24.9704 18.6664 24.981 18.8108 24.961 18.9525L24.125 24.8125L20.125 25.8125" stroke="white" stroke-width="2" stroke-linecap="round" stroke-linejoin="round"/>
</svg>
