<svg width="49" height="49" viewBox="0 0 49 49" fill="none" xmlns="http://www.w3.org/2000/svg">
<mask id="mask0_1_337" style="mask-type:luminance" maskUnits="userSpaceOnUse" x="0" y="0" width="49" height="49">
<path d="M48.1406 0.8125H0.140625V48.8125H48.1406V0.8125Z" fill="white"/>
</mask>
<g mask="url(#mask0_1_337)">
<path d="M36.1406 8.8125H12.1406C9.93148 8.8125 8.14062 10.6034 8.14062 12.8125V36.8125C8.14062 39.0216 9.93148 40.8125 12.1406 40.8125H36.1406C38.3497 40.8125 40.1406 39.0216 40.1406 36.8125V12.8125C40.1406 10.6034 38.3497 8.8125 36.1406 8.8125Z" stroke="white" stroke-width="2" stroke-linecap="round" stroke-linejoin="round"/>
<path d="M16.1406 22.8125V32.8125" stroke="white" stroke-width="2" stroke-linecap="round" stroke-linejoin="round"/>
<path d="M16.1406 16.8125V16.8325" stroke="white" stroke-width="2" stroke-linecap="round" stroke-linejoin="round"/>
<path d="M24.1406 32.8125V22.8125" stroke="white" stroke-width="2" stroke-linecap="square" stroke-linejoin="round"/>
<path d="M32.1406 32.8125V26.8125C32.1406 25.7516 31.7192 24.7342 30.969 23.9841C30.2189 23.2339 29.2015 22.8125 28.1406 22.8125C27.0797 22.8125 26.0623 23.2339 25.3122 23.9841C24.562 24.7342 24.1406 25.7516 24.1406 26.8125" stroke="white" stroke-width="2" stroke-linecap="round" stroke-linejoin="round"/>
</g>
</svg>
