<svg xmlns="http://www.w3.org/2000/svg" width="48" height="49" fill="none" viewBox="0 0 48 49"><mask id="mask0_1_154" style="mask-type:luminance" width="48" height="49" x="0" y="0" maskUnits="userSpaceOnUse"><path fill="#fff" d="M48 0.8125H0V48.8125H48V0.8125Z"/></mask><g mask="url(#mask0_1_154)"><path stroke="#fff" stroke-linecap="round" stroke-linejoin="round" stroke-width="2" d="M12.612 18.2344C7.408 19.6804 4 22.0864 4 24.8124C4 29.2324 12.954 32.8124 24 32.8124C25.546 32.8124 27.052 32.7424 28.496 32.6084"/><path stroke="#fff" stroke-linecap="round" stroke-linejoin="round" stroke-width="2" d="M35.384 31.3905C40.59 29.9465 44 27.5385 44 24.8125C44 20.3925 35.046 16.8125 24 16.8125C22.454 16.8125 20.948 16.8825 19.5 17.0165"/><path stroke="#fff" stroke-linecap="round" stroke-linejoin="round" stroke-width="2" d="M12.61 31.3864C11.258 36.6164 11.64 40.7724 14 42.1324C17.826 44.3424 25.406 38.3784 30.928 28.8124C31.702 27.4724 32.394 26.1344 33 24.8164"/><path stroke="#fff" stroke-linecap="round" stroke-linejoin="round" stroke-width="2" d="M35.388 18.2444C36.742 13.0124 36.362 8.85235 34 7.49235C30.174 5.28235 22.594 11.2464 17.072 20.8124C16.298 22.1524 15.606 23.4924 14.998 24.8104"/><path stroke="#fff" stroke-linecap="round" stroke-linejoin="round" stroke-width="2" d="M24 11.6604C20.15 7.87639 16.36 6.12839 14 7.49239C10.174 9.70039 11.548 19.2464 17.072 28.8124C17.844 30.1524 18.658 31.4204 19.496 32.6044"/><path stroke="#fff" stroke-linecap="round" stroke-linejoin="round" stroke-width="2" d="M23.996 37.9603C27.848 41.7463 31.638 43.4963 34 42.1323C37.826 39.9243 36.452 30.3783 30.928 20.8123C30.178 19.5123 29.368 18.2463 28.504 17.0183"/><path stroke="#fff" stroke-linecap="round" stroke-linejoin="round" stroke-width="2" d="M23 26.5445C23.2275 26.6779 23.4792 26.765 23.7405 26.8007C24.0019 26.8364 24.2677 26.8201 24.5227 26.7527C24.7777 26.6853 25.0168 26.5681 25.2263 26.4079C25.4359 26.2477 25.6116 26.0476 25.7435 25.8192C25.8754 25.5907 25.9608 25.3385 25.9948 25.0769C26.0288 24.8154 26.0107 24.5497 25.9416 24.2951C25.8725 24.0406 25.7537 23.8022 25.5921 23.5938C25.4305 23.3853 25.2293 23.2109 25 23.0805C24.5409 22.8195 23.9971 22.7506 23.4875 22.889C22.9778 23.0274 22.5435 23.3617 22.2794 23.8191C22.0154 24.2765 21.9429 24.8197 22.0779 25.3303C22.2129 25.8409 22.5444 26.2774 23 26.5445Z"/></g></svg>