<svg xmlns="http://www.w3.org/2000/svg" width="307" height="16" fill="none" viewBox="0 0 307 16"><g clip-path="url(#clip0_12_5)"><path fill="#fff" d="M306.256 11.2129C306.425 11.1084 306.347 10.8472 305.903 10.8733L305.563 11.2782L306.256 11.2129Z"/><path fill="#fff" d="M303.33 10.1942C302.795 10.364 302.168 10.6905 302.481 11.1084C303.03 10.7296 303.134 10.9125 303.787 10.4684C304.232 10.4684 304.545 10.6643 304.454 10.808C304.623 10.7166 305.133 10.9517 305.394 10.7035C305.088 10.5155 304.743 10.3981 304.387 10.3597C304.03 10.3212 303.669 10.3629 303.33 10.4815C303.121 10.377 303.291 10.2725 303.33 10.1942Z"/><path fill="#fff" d="M233.313 4.42142C233.522 4.42142 233.613 4.42142 233.626 4.42142C233.43 4.36918 233.274 4.38224 233.313 4.42142Z"/><path fill="#fff" d="M228.755 3.67697H229.029C228.94 3.6471 228.843 3.6471 228.755 3.67697Z"/><path fill="#fff" d="M260.126 6.39356L259.421 6.21071C259.356 6.34131 259.773 6.34131 260.126 6.39356Z"/><path fill="#fff" d="M297.296 10.7949C297.43 10.7799 297.561 10.7492 297.688 10.7035H297.322C297.322 10.7035 297.309 10.7688 297.296 10.7949Z"/><path fill="#fff" d="M271.972 6.86374H272.181C272.251 6.8188 272.318 6.76625 272.377 6.70702L271.972 6.86374Z"/><path fill="#fff" d="M281.036 7.45146C280.84 7.45146 280.735 7.77797 280.644 7.9347C280.768 7.8056 280.935 7.72659 281.114 7.71267C281.119 7.61916 281.092 7.52685 281.036 7.45146Z"/><path fill="#fff" d="M265.481 6.32825C265.468 6.27427 265.44 6.22469 265.403 6.18459C265.404 6.21277 265.413 6.2402 265.426 6.265C265.439 6.28979 265.459 6.31136 265.481 6.32825Z"/><path fill="#fff" d="M1.4104 14.1384H1.55407C1.56096 14.069 1.56096 13.999 1.55407 13.9295L1.4104 14.1384Z"/><path fill="#fff" d="M143.261 0.764481C144.136 1.09099 141.837 1.18242 143.156 1.54811C143.026 1.46975 144.345 0.973449 143.261 0.764481Z"/><path fill="#fff" d="M297.061 10.7296H296.696C296.817 10.7401 296.94 10.7401 297.061 10.7296Z"/><path fill="#fff" d="M201.04 2.0444C201.094 2.11377 201.16 2.17155 201.236 2.21419C201.236 2.21419 201.132 2.12277 201.04 2.0444Z"/><path fill="#fff" d="M193.544 2.22726C193.371 2.19803 193.194 2.19803 193.021 2.22726C193.046 2.23622 193.075 2.23622 193.1 2.22726C193.242 2.17185 193.401 2.17185 193.544 2.22726Z"/><path fill="#fff" d="M185.747 1.96605C185.79 1.99975 185.838 2.02621 185.89 2.04441H186.138L185.747 1.96605Z"/><path fill="#fff" d="M35.4201 10.3639C35.2662 10.3042 35.1278 10.2104 35.0152 10.0897C35.1719 10.3378 34.0487 10.6121 35.4201 10.3639Z"/><path fill="#fff" d="M297.309 10.6121C297.285 10.6557 297.248 10.6919 297.205 10.7171C297.161 10.7423 297.112 10.7557 297.061 10.7558H297.322C297.349 10.6121 297.362 10.6121 297.309 10.6121Z"/><path fill="#fff" d="M193.113 5.11362L191.807 5.00914C192.239 5.06981 192.675 5.10469 193.113 5.11362Z"/><path fill="#fff" d="M90.9142 5.16586H90.6399C90.73 5.188 90.824 5.188 90.9142 5.16586Z"/><path fill="#fff" d="M188.215 4.94384C188.002 4.81146 187.768 4.71855 187.523 4.66957C187.468 4.68735 187.418 4.71881 187.379 4.76099L188.215 4.94384Z"/><path fill="#fff" d="M27.0875 12.101C28.2499 11.9443 27.5577 11.5525 27.7667 11.239C29.0727 10.9125 28.4589 11.5002 28.9682 11.6831C29.6527 11.3574 30.3548 11.0696 31.071 10.8211C31.1363 10.8994 31.2669 10.9125 31.1363 11.03C31.9983 10.5207 33.8529 10.6252 34.8585 9.9852C34.9182 10.0072 34.9719 10.043 35.0153 10.0897C34.9302 10.0093 34.8631 9.91194 34.818 9.80396C34.7731 9.69596 34.7513 9.57973 34.7541 9.46278C35.2765 9.37135 35.6944 9.01872 35.9295 9.30605C35.603 9.30605 35.603 9.46278 35.4593 9.58032L35.9948 9.37135C36.5433 9.75011 35.2634 9.63256 35.3026 9.97214C36.2944 9.57588 37.3287 9.29539 38.3849 9.13626C38.6069 9.54114 36.4911 9.5542 37.6404 9.78929H36.3344C37.3923 10.3378 35.5638 9.78929 36.5433 10.4684C38.2281 10.364 38.3718 9.94602 40.0566 9.88071C40.3962 9.60644 39.8868 9.54114 40.2264 9.25381C42.5512 8.54854 42.2377 10.1419 43.8964 9.37135C44.3143 9.01872 44.4319 8.44406 45.6988 8.60078L45.3331 9.14932C46.9656 9.00566 46.182 8.32651 47.9452 8.47018C47.6709 8.69221 46.7044 8.77057 46.9526 8.80975C48.0888 9.07096 47.697 8.44406 48.5329 8.33957L48.768 8.75751C50.4789 8.4963 52.3465 7.96082 54.2403 7.67349C54.1489 7.81715 53.8354 7.98694 54.2403 8.07836C55.4818 7.83783 56.7388 7.68507 58.0017 7.62124C59.3078 7.62124 60.6138 7.62124 61.737 7.62124L62.6905 7.20331C62.8994 7.20331 63.0823 7.33391 62.8733 7.42534C63.7875 7.49064 62.8733 7.19025 63.3174 6.99434C63.7614 6.79843 64.0226 7.15107 63.6961 7.29473C65.709 6.66015 67.8172 6.3817 69.926 6.47192L69.5995 6.61559C70.9055 6.61559 71.0231 5.70135 72.2116 5.96256L71.9895 6.04092C74.8498 5.96256 77.9713 5.33566 80.2046 5.80583C80.5703 5.23117 83.0387 5.8842 83.1693 5.10057C84.3133 5.42951 85.4931 5.6181 86.6826 5.66217C87.2965 5.66217 87.5707 5.12669 88.3282 5.00914V5.40096L89.3339 4.91772L89.9086 5.36178L90.6138 5.21811C90.3265 5.21811 90 5.07445 90.0392 4.9569C90.9684 4.75392 91.9388 4.8689 92.7949 5.28341L95.407 4.77405C95.407 4.94384 94.9238 5.0222 94.5842 5.15281C95.8903 4.65651 94.8585 5.55768 96.1254 5.15281C95.9425 5.07445 96.2037 4.90466 96.2298 4.8263C97.2838 5.01287 98.3625 5.01287 99.4166 4.8263L99.2599 5.08751C101.219 5.08751 103.374 4.78712 105.555 4.70875C104.771 4.61733 104.928 4.12103 105.555 4.05573L105.79 4.47366C106.195 4.18633 105.111 4.33 105.96 3.97736C106.783 3.97736 106.522 4.44754 106.064 4.60427L107.096 4.40836C107.161 4.53897 106.939 4.61733 106.874 4.77405C107.279 4.49978 108.611 5.13975 109.186 4.65651V4.78712C111.38 4.69569 112.373 4.51284 114.149 4.42142C114.149 4.05573 114.88 4.10797 115.455 3.80758C116.898 3.98512 118.35 4.07672 119.804 4.08185C120.901 3.88594 120.118 3.7684 120.614 3.54637C120.705 3.87288 122.272 3.82064 121.463 4.06879C123.076 4.01843 124.685 3.8789 126.282 3.65085C126.021 3.50719 125.72 3.45494 125.877 3.3374C126.308 3.3374 126.87 3.468 126.804 3.62473H126.687C129.377 3.07619 132.917 4.47366 135.059 3.7684H134.941L137.161 3.4027C138.18 3.4027 136.548 3.65085 137.305 3.85982C139.708 3.29822 141.093 3.93818 143.078 3.57249C144.606 4.55203 148.498 3.50719 150.562 4.13409L150.444 3.899C150.979 3.67697 151.097 4.02961 151.489 4.09491C151.489 3.91206 150.901 3.88594 151.241 3.75534C155.76 3.48106 160.566 4.22551 165.189 4.49978C166.887 4.59121 166.182 3.32434 168.311 3.91206L167.697 4.33C171.119 3.84676 174.684 4.48672 178.041 4.16021C177.845 4.25163 177.832 4.38224 177.505 4.36918C178.198 4.70875 180.117 4.47366 180.117 4.21245C180.64 4.21245 180.222 4.44754 180.548 4.59121C181.254 4.80018 182.338 4.25163 182.703 4.59121C182.769 4.59121 182.508 4.69569 182.377 4.70875C182.834 4.57815 184.519 4.81324 184.088 4.44754C185.394 4.65651 186.504 4.35612 187.497 4.60427C188.163 4.21245 189.639 4.86548 189.874 4.30388C189.756 4.87854 192.055 4.83936 192.865 4.60427C192.59 4.77406 193.544 4.8263 193.217 5.04833C194.131 5.04833 194.967 5.04833 194.824 4.69569C196.456 5.47932 198.193 4.27776 199.107 5.23117C201.811 5.0222 204.332 4.91772 206.735 4.87854C206.63 5.46626 204.057 4.87854 204.123 5.4532C206.083 5.14823 208.07 5.03015 210.052 5.10057C210.64 5.20505 209.7 5.33566 209.504 5.42708C211.815 5.29648 213.931 5.71441 216.034 5.50544C216.034 5.50544 215.799 5.60993 215.59 5.63605C215.995 5.63605 216.53 5.77971 216.491 5.50544H216.099C215.472 5.08751 217.732 4.77406 217.823 4.57815C217.092 5.30954 219.821 4.87854 218.685 5.79277C218.959 5.79277 219.299 5.64911 219.247 5.46626C219.639 5.46626 219.756 5.64911 219.351 5.83196C220.801 5.75359 220.305 5.4532 221.611 5.5185C221.611 5.64911 221.323 5.68829 221.18 5.83196C221.962 5.53431 222.808 5.44431 223.635 5.57075C223.635 5.64911 223.635 5.75359 223.361 5.72747C225.255 5.79277 226.626 5.23117 228.689 5.58381C228.05 6.11929 229.395 5.80583 229.473 6.30213L230.596 6.22377L230.165 5.96256C231.065 5.8913 231.969 5.8913 232.869 5.96256L232.124 6.11929H233.966L232.934 5.87114C233.94 5.67523 232.934 5.24423 234.162 5.46626C233.901 5.46626 235.141 5.46626 235.638 5.84502C236.191 5.67051 236.779 5.63905 237.349 5.75359C237.531 5.92338 237.166 6.28907 237.349 6.39356C237.858 6.0148 239.647 6.39356 240.287 6.02786C240.211 6.05983 240.15 6.11933 240.116 6.19441C240.082 6.2695 240.078 6.35464 240.104 6.43274L240.535 6.11929C240.979 6.26295 241.045 6.31519 240.953 6.5111C242.259 6.65477 240.561 5.87114 242.168 6.23683C242.037 6.23683 242.09 6.23683 241.828 6.34132C243.448 6.5764 244.989 6.34132 246.465 6.5764C246.883 7.09882 245.159 6.5764 245.629 7.05964C247.805 6.95073 249.983 6.95073 252.159 7.05964L251.767 6.98128C252.107 6.30213 253.309 7.42534 254.38 7.16413C254.118 7.16413 254.014 7.52982 254.092 7.46452C255.791 7.59946 257.5 7.59946 259.199 7.46452L258.925 7.63431C259.747 7.84327 261.132 7.86939 262.033 8.01306C262.32 7.85633 262.83 7.92164 262.542 7.63431C265.272 8.84893 267.923 7.45146 270.379 8.48324C270.078 8.48324 269.66 8.58772 269.895 8.60078H272.024C271.881 8.28733 271.75 8.39181 271.332 8.1306C271.771 7.97279 272.242 7.92788 272.703 8C271.737 8.1306 272.703 8.48324 273.069 8.67915C273.069 8.58772 273.16 8.4963 273.069 8.39182C274.14 9.01872 273.291 7.80409 274.78 8.27427L274.689 8.431C275.253 8.32815 275.826 8.28437 276.4 8.30039C276.635 8.66609 275.786 8.41794 275.733 8.70527C276.582 8.70527 277.47 8.16979 278.215 8.57466C277.849 8.63996 277.327 8.57466 276.909 8.67915C277.373 8.97895 277.911 9.14606 278.463 9.16238L279.9 9.44972L279.534 9.31911C280.67 8.48324 281.728 9.31911 283.217 8.80975C281.767 9.27993 282.956 9.1232 282.825 9.51502C283.191 9.64562 283.74 9.81541 283.57 9.90683C284.275 9.64562 284.693 10.2464 285.686 9.84153C285.686 9.97214 286.417 9.90683 286.234 10.2203C287.135 10.2203 286.038 9.9852 286.13 9.82847C287.527 9.4889 289.303 10.599 291.354 10.1419C293.065 10.0244 293.417 9.6195 294.998 9.52808C295.52 9.76317 294.541 9.95907 294.541 9.95907C295.285 10.1831 296.07 10.2411 296.839 10.1289C296.669 10.2333 296.839 10.3378 297.074 10.4946C297.714 10.4946 297.531 10.0766 298.38 10.3248C298.181 10.52 297.945 10.6752 297.688 10.7819C298.459 10.7819 299.229 10.5468 300.039 10.4815C300.222 10.7296 299.53 10.7819 299.242 10.9125C300.143 10.9125 301.554 10.9125 301.854 10.5468L301.306 10.3901C301.619 10.3901 301.45 10.7035 301.201 10.7427C300.418 10.9647 300.117 10.5468 300.078 10.4162H300.653C300.13 9.63256 298.38 10.4162 297.244 10.2464L297.753 9.73705L296.565 10.1027C296.33 9.94602 296.186 9.63256 296.748 9.59338C295.951 9.25381 296.016 9.72399 295.337 9.37135C295.259 9.37135 295.337 9.37135 295.337 9.27993L294.527 9.38441C294.697 9.27993 294.423 8.9926 294.906 9.11014C293.509 8.69221 292.581 9.34523 292.072 8.88811H292.19C290.204 8.88811 291.968 9.26687 290.453 9.6195L289.525 8.5616L289.303 8.95342C289.107 8.95342 288.702 8.86199 288.794 8.70527C288.01 8.9273 288.911 8.88811 288.441 9.11014C287.488 8.67915 285.725 9.11014 285.555 8.431C285.176 8.70527 286.469 8.73139 285.411 8.87505C285.163 8.16979 284.184 8.87505 283.322 8.52242C283.622 8.19591 284.458 8.44406 283.583 8.0653C282.995 8.61384 281.846 7.80409 281.075 7.85633C281.01 8.32651 279.416 7.9347 278.137 8C276.972 7.70341 275.79 7.47663 274.597 7.32085V7.24249C274.336 7.69961 273.121 7.51676 272.233 7.55594C272.233 7.26861 272.455 7.17719 272.938 7.08576L272.103 7.02046C271.79 7.18899 271.438 7.26597 271.084 7.24249L271.397 6.69395C270.183 6.83384 268.955 6.83384 267.74 6.69395C267.636 7.02046 268.811 7.69961 267.283 7.81715C267.283 7.63431 267.205 7.32085 267.61 7.28167C267.369 7.33698 267.119 7.33698 266.878 7.28167L267.505 7.02046C266.865 6.83761 267.14 7.24249 266.63 7.17719C266.63 6.92904 266.251 6.96822 266.343 6.77231C266.434 6.5764 266.787 6.91598 266.996 6.77231C266.464 6.71886 265.952 6.54943 265.494 6.27601C265.494 6.41968 265.494 6.61559 265.037 6.62865C263.927 6.62865 264.684 6.28907 264.044 6.10623C263.757 6.27601 263.065 6.10623 263.012 6.41968C262.699 6.41968 262.647 6.21071 262.529 6.10623C261.942 6.23683 259.839 5.96256 260.466 6.41968H260.609H260.505C258.598 6.66783 256.587 5.93644 254.732 5.97562V5.84502C253.629 5.80364 252.524 5.84731 251.428 5.97562C251.101 5.97562 250.67 5.68829 250.814 5.54462C250.088 5.66835 249.342 5.62819 248.633 5.42708C249.508 5.25729 248.346 5.21811 249.521 5.3226C248.68 5.03435 247.773 4.99356 246.909 5.20505C247.327 4.8916 246.099 4.73487 245.603 4.80018L246.36 5.08751C245.814 5.0832 245.268 5.04394 244.728 4.96996L245.041 4.55203C242.808 3.88594 240.888 5.20505 239.216 4.21245C238.602 4.47366 240.444 4.49978 239.882 4.8263C239.069 4.63776 238.269 4.38893 237.492 4.08185C236.069 3.75534 236.121 4.63039 234.632 4.36918C234.815 4.53897 234.972 4.96996 233.848 5.03526C232.725 5.10057 232.542 4.31694 233.261 4.22551C233.522 4.22551 233.639 4.22551 233.626 4.34306C233.966 4.34306 234.41 4.2647 234.005 4.06879L233.861 4.21245C233.352 4.02961 231.915 3.95124 232.268 3.72921C231.471 3.82064 231.915 3.95124 232.49 4.06879C231.184 3.7684 230.4 3.92512 229.029 3.70309C229.238 3.80758 229.434 4.00348 229.212 3.97736C227.201 3.69003 228.311 4.22551 226.939 4.22551C226.169 3.95124 227.24 3.67697 225.855 3.79452C225.019 3.59861 225.699 3.37658 226.038 3.2721C225.003 3.33423 223.964 3.19223 222.982 2.85416L223.661 2.76274C223.31 2.80155 222.955 2.80155 222.603 2.76274L222.956 3.10231C222.577 3.02395 222.251 2.99783 222.264 2.88028C221.846 3.06313 222.538 3.4027 221.728 3.63779C221.219 3.45494 220.135 3.72921 219.978 3.31128C221.611 3.53331 219.821 2.88028 221.206 2.89334C220.881 2.94143 220.551 2.94143 220.226 2.89334C220.226 2.89334 220.226 2.81498 220.396 2.80192C218.855 2.3448 219.652 3.21985 218.032 3.12843C218.254 2.9064 217.679 2.67131 217.418 2.69743C218.071 2.69743 217.706 3.10231 217.105 3.24598C216.073 3.01089 215.969 3.32434 215.42 3.24598L216.047 3.36352C215.825 3.58555 215.302 3.53331 214.571 3.55943C214.571 3.37658 215.237 3.468 214.989 3.37658C214.166 3.74227 213.187 2.86722 212.063 3.07619C211.554 2.89334 212.063 2.63213 211.58 2.50153C210.274 2.73662 210.274 2.12277 208.903 2.31868C209.269 2.64519 209.347 2.56683 208.393 2.82804L210.575 2.71049L209.164 3.10231C209.817 3.10231 210.548 2.95864 210.94 3.03701C210.274 3.25904 210.339 3.18067 210.64 3.45494C209.765 2.94558 208.851 3.65085 207.832 3.28516L207.897 2.51459C206.356 2.10971 205.115 2.80192 203.104 2.51459L203.744 2.67131C203.47 2.9717 202.503 2.67131 201.837 2.76274C201.915 2.50153 201.511 2.39704 201.236 2.22726C201.236 2.4101 199.76 2.13583 199.551 2.64519L198.663 2.26644C197.031 2.05747 196.77 2.91946 195.202 2.76274C195.686 2.50153 194.98 2.29256 196.038 2.13583C195.516 2.13583 195.046 2.04441 195.033 2.22726C194.732 2.04441 193.57 2.51459 193.1 2.22726C192.865 2.33174 192.786 2.60601 192.198 2.55377V2.42316C192.198 2.42316 191.271 2.55377 191.767 2.86722C190.187 2.00523 187.262 2.78886 185.877 2.04441C184.728 2.04441 183.356 2.13583 182.312 2.12277C182.377 2.04441 182.312 1.99217 182.521 2.03135C181.084 1.74402 181.606 2.73662 179.987 2.42316C179.177 1.97911 180.862 2.22726 180.353 2.05747C180.144 1.19548 178.38 2.05747 177.296 1.57423H177.558C176.735 1.26078 175.507 1.83544 174.136 1.73096C174.136 1.73096 174.214 1.65259 174.136 1.60035C172.821 1.96859 171.465 2.17043 170.1 2.20114C170.518 1.87462 170.701 2.04441 170.453 1.69178C169.865 1.69178 170.609 2.24032 169.434 2.31868C169.055 2.12277 168.206 1.95299 168.128 1.60035H169.238C168.676 1.13017 167.801 1.60035 167.214 1.50893L167.292 1.29996C165.594 1.29996 165.555 1.8485 163.727 1.7832L163.909 1.93993C162.904 2.43622 163.074 1.63953 162.068 2.00523L161.781 1.48281C160.619 1.71993 159.447 1.89865 158.267 2.01829C159.215 1.65895 160.195 1.38789 161.193 1.20854C160.314 1.14157 159.431 1.2255 158.581 1.45669C158.86 1.37324 159.153 1.3466 159.443 1.37832C158.442 1.80535 157.356 1.99317 156.269 1.92686C156.517 0.934266 152.873 1.60035 151.933 0.842843C149.621 1.20854 147.349 0.686117 144.658 0.738358C145.612 1.52199 143.875 0.738359 144.031 1.56117C143.404 1.56117 143.169 1.56117 143.117 1.56117L141.249 1.06487C140.805 0.842843 141.85 0.895085 141.798 0.712237C140.414 0.712237 141.21 0.372664 140.309 0.163696C140.492 0.451027 139.826 0.568572 139.003 0.464088L140.113 0.829782C138.232 1.26078 138.441 0.163696 136.561 0.581632L137.135 0.333483C136.156 0.477148 133.478 0.333483 132.512 0.999569C132.342 0.908145 132.107 0.686117 132.512 0.620814C130.135 0.620814 127.288 1.40444 125.394 1.03875L125.577 0.842843C125.133 0.842843 124.806 1.2216 124.271 1.03875C124.271 0.960387 124.454 0.842843 124.271 0.829782C123.707 1.03442 123.107 1.12326 122.508 1.09099L123.017 0.855903C120.692 0.646935 119.478 1.46975 117.545 1.62647C117.545 1.05181 115.716 0.895085 114.802 0.829782V0.751419C112.437 0.918087 110.085 1.24095 107.762 1.7179C106.195 1.15629 102.538 1.7179 100.004 1.40444C100.396 1.49587 100.004 1.86156 99.5211 1.92686C99.0378 1.99217 97.9538 2.39704 98.0191 1.86156H98.2281C97.7579 1.36526 96.5694 1.53505 95.616 1.57423L95.4985 2.2795C92.9908 1.4175 89.0988 3.03701 87.6622 2.2142C87.0875 2.42316 86.3561 2.47541 85.7814 2.68437V2.30562C84.2851 2.29107 82.7893 2.36521 81.3017 2.52765L81.6935 2.24032C80.5572 2.24032 80.3875 3.38964 79.2773 3.54637L78.9247 3.01089C76.9222 2.89013 74.9129 3.05281 72.956 3.49413C72.956 3.41576 73.0344 3.24598 73.3478 3.19373C72.4205 3.19373 69.704 3.19373 70.1088 3.85982C70.1088 3.37658 68.0453 3.99042 67.0004 4.30388L67.131 3.92512C66.5195 4.41848 65.782 4.73067 65.0022 4.8263C64.6887 4.8263 64.7148 4.56509 65.1197 4.61733C64.101 4.51284 64.3622 5.03526 63.1345 4.94384L63.5655 4.66957C63.0283 4.6414 62.5007 4.81885 62.0897 5.16587C61.4628 5.37484 60.1306 5.24423 59.9478 4.93078C59.7961 5.08693 59.6126 5.20859 59.4098 5.28746C59.207 5.36635 58.9895 5.40061 58.7723 5.3879C58.6809 5.27035 58.8899 5.17893 59.0074 5.12669C57.2573 5.0222 56.4998 5.8189 55.2852 5.58381C55.2709 5.52852 55.2389 5.47943 55.1941 5.44405C55.1492 5.40866 55.0941 5.38894 55.037 5.3879C56.3431 5.23117 57.4924 5.12669 57.3879 5.16587C57.3879 4.83936 56.2516 4.90466 57.0875 4.34306C56.0262 4.90057 54.8701 5.25493 53.6787 5.3879C53.627 5.34816 53.5827 5.29951 53.5481 5.24423H53.6657C53.432 5.23181 53.1989 5.27665 52.9865 5.37484C52.687 5.34215 52.3848 5.34215 52.0853 5.37484C51.9286 5.11363 50.7793 5.37484 50.2569 5.37484C50.3483 5.72747 49.63 5.75359 50.3352 5.97562C50.2438 5.97562 50.4267 5.97562 50.7923 5.87114H51.0274L52.3335 5.68829C52.1203 5.83549 51.8803 5.93899 51.6269 5.99278C51.3737 6.04659 51.1122 6.04963 50.8576 6.00174C50.6339 6.2355 50.3986 6.45782 50.1524 6.66783C49.3557 6.24989 47.8799 6.13235 47.6317 5.84502C45.9861 6.23683 43.7136 6.41968 42.734 7.22943C42.2769 7.3731 42.1724 7.09882 41.9765 7.0074C42.2258 6.92718 42.4664 6.82218 42.6948 6.69395C41.7675 6.98128 39.8868 7.08576 39.717 7.59512C38.4894 7.51676 40.3309 7.05964 38.6983 7.34697L38.8942 7.16413C35.5638 6.86374 33.8137 9.13626 30.1045 8.66609C30.3527 8.66609 30.4833 8.66609 30.5486 8.77057C26.4084 8.95342 22.1898 10.3117 18.0758 10.3248C17.3798 10.3467 16.712 10.6046 16.182 11.0562L15.8686 10.7166L14.7584 11.3696C13.1259 11.9965 11.6761 10.9256 9.63869 11.9182L9.9652 12.1271C9.19463 12.2185 7.56207 12.7018 7.64043 12.3883C7.5865 12.4743 7.5075 12.5417 7.41409 12.5814C7.32068 12.6211 7.21733 12.6312 7.11801 12.6104V12.4145L5.22424 13.1328C3.73534 13.2373 5.3026 12.2838 3.16068 12.6104C2.39011 12.8324 1.01875 13.603 1.34527 13.6813C1.67178 13.7597 2.18114 13.6813 2.24644 13.8642L1.54117 14.0993C1.54117 14.7131 1.08405 15.4053 2.93865 15.5359L4.10103 14.9482L4.55815 15.1702L3.51331 15.3792C3.74546 15.4211 3.98419 15.4088 4.21078 15.3431C4.43738 15.2774 4.64567 15.1602 4.81936 15.0004C4.9782 15.1425 5.18114 15.2255 5.39402 15.2355L6.50417 14.4519C6.70007 14.6609 6.04705 15.0004 6.88292 15.0004C7.40534 14.6347 6.24296 14.5694 7.15719 14.2299C7.79716 14.3996 7.65349 14.6478 8.30652 14.2952C8.43712 14.4258 8.30652 14.5564 8.04531 14.6739C8.63303 14.3735 9.66481 14.3082 9.92602 13.9295C10.5921 14.1646 11.9896 13.4854 12.0288 14.0601C12.5012 13.715 13.0321 13.4584 13.596 13.3026C12.6818 14.1646 15.7249 12.9761 15.5812 13.7597C16.2473 13.0152 18.2978 13.0022 19.6039 12.4536C19.5208 12.55 19.4039 12.6108 19.2774 12.6234C19.8182 12.5725 20.3635 12.5989 20.8969 12.7018C20.8969 12.1924 22.0984 11.9051 22.6992 11.5002C23.7049 11.8528 22.216 12.1794 22.5817 12.5973C22.4772 12.1924 24.1489 11.9573 23.7832 11.67C24.5407 11.8659 24.4232 11.67 24.8542 12.0879C24.8542 11.4349 25.5072 11.892 26.0558 11.4088C27.1398 11.5786 26.4084 11.9704 27.5185 11.6178C28.0671 11.7353 27.0875 12.101 27.0875 12.101ZM56.4998 7.29473C56.2255 7.29473 55.8729 7.29473 55.5072 7.39922C55.4158 7.28167 55.5072 7.13801 55.7162 7.11189C55.5986 7.21637 56.1602 7.22943 56.4998 7.29473ZM51.367 5.30954C51.7327 5.21811 51.8633 5.30954 51.9156 5.30954L51.2886 5.42708C51.3089 5.38427 51.3353 5.34467 51.367 5.30954Z"/><path fill="#fff" d="M50.7662 5.87114H50.6226H50.8446L50.9621 5.74054L50.7662 5.87114Z"/><path fill="#fff" d="M88.3674 5.49238L88.3544 5.40096L88.1584 5.49238H88.3674Z"/><path fill="#fff" d="M273.069 8.61385C273.111 8.66782 273.171 8.70488 273.239 8.71833C273.239 8.71833 273.161 8.66609 273.069 8.61385Z"/><path fill="#fff" d="M282.773 9.58033C282.815 9.5403 282.846 9.49107 282.864 9.43666L282.773 9.58033Z"/><path fill="#fff" d="M215.59 5.70135H215.498C215.041 5.76666 215.302 5.7536 215.59 5.70135Z"/><path fill="#fff" d="M235.638 5.96255L234.985 6.10622C235.337 6.1454 235.612 6.17152 235.638 5.96255Z"/><path fill="#fff" d="M193.243 5.12669V5.11363H193.113L193.243 5.12669Z"/><path fill="#fff" d="M234.044 6.04093C234.355 6.09782 234.674 6.09782 234.985 6.04093C234.672 5.99555 234.356 5.99555 234.044 6.04093Z"/><path fill="#fff" d="M301.293 11.0823H301.515C301.41 11.0431 301.319 11.0431 301.293 11.0823Z"/><path fill="#fff" d="M301.998 10.9909L301.515 11.0562C301.698 11.0692 301.881 11.0953 301.998 10.9909Z"/><path fill="#fff" d="M295.481 10.5207L295.403 10.6513C295.425 10.6364 295.443 10.6171 295.456 10.5945C295.469 10.572 295.478 10.5468 295.481 10.5207Z"/><path fill="#fff" d="M293.783 10.4293C294.288 10.6064 294.816 10.7119 295.35 10.7427V10.6513C295.167 10.8211 294.175 10.2333 293.783 10.4293Z"/><path fill="#fff" d="M286.809 8.26121L288.232 8.47018C287.984 8.31345 287.671 8.09142 288.324 8.11754C286.56 7.55594 288.637 8.45711 286.809 8.26121Z"/><path fill="#fff" d="M282.407 7.73879C283.178 7.73879 282.407 7.52982 282.407 7.45146C281.963 7.54289 281.846 7.56901 282.407 7.73879Z"/><path fill="#fff" d="M250.5 5.50544L250.605 5.17892C250.004 5.17892 250.592 5.29647 250.5 5.50544Z"/><path fill="#fff" d="M244.284 6.83761L244.845 7.08576L245.146 6.79843L244.284 6.83761Z"/><path fill="#fff" d="M240.836 4.23857L241.097 4.21245L240.104 4.26469L240.836 4.23857Z"/><path fill="#fff" d="M187.144 1.69177L187.314 2.10971C187.719 2.0444 187.81 1.58729 187.144 1.69177Z"/><path fill="#fff" d="M163.935 1.46974C163.746 1.34249 163.528 1.26196 163.301 1.23472C163.075 1.20748 162.844 1.23431 162.629 1.31302C163.06 1.39551 163.497 1.44788 163.935 1.46974Z"/><path fill="#fff" d="M94.323 1.82238L94.7801 1.66565L93.905 1.83544L94.323 1.82238Z"/></g><defs><clipPath id="clip0_12_5"><rect width="306.922" height="15.673" fill="#fff" transform="translate(0 0.163696)"/></clipPath></defs></svg>